M48
;DRILL file {KiCad no-vcs-found-bf21640~58~ubuntu16.10.1} date Fri Apr  7 06:12:12 2017
;FORMAT={-:-/ absolute / metric / decimal}
FMAT,2
METRIC,TZ
T1C0.600
T2C1.000
T3C1.001
T4C1.016
T5C1.200
T6C1.780
T7C3.200
T76767C3.200
T767C3b.200
%
G90
G05
M71
T1
X109.177Y-39.624
X25.019Y-39.751
X30.988Y-56.515
X35.433Y-34.544
X38.1Y-19.05
X38.1Y-30.099
X40.386Y-69.85
X54.483Y-71.374
X54.483Y-84.455
X55.181Y-56.261
X55.753Y-34.544
X59.944Y-69.85
T2
X21.59Y-27.305
X21.59Y-29.845
X21.59Y-32.385
X21.59Y-34.925
T3
X22.225Y-42.545
X22.225Y-45.72
X25.781Y-66.548
X25.781Y-69.088
X25.781Y-71.628
T4
X26.416Y-31.623
X28.956Y-31.623
X29.21Y-81.915
X30.48Y-38.735
X30.48Y-41.275
X30.48Y-43.815
X31.75Y-81.915
X34.29Y-81.915
T5
X68.58Y-33.02
X68.58Y-35.56
X68.58Y-38.1
X68.58Y-40.64
X68.58Y-43.18
T6
X20.701Y-55.372
X20.701Y-59.332
T7
X21.59Y-81.28
X69.215Y-80.645
X70.612Y-20.828
T0
M30
